<svg width="22" height="22" viewBox="0 0 22 22" fill="none" xmlns="http://www.w3.org/2000/svg">
<path d="M2.52344 2.979L4.4301 3.309L5.31285 13.8259C5.38344 14.6848 6.10119 15.3439 6.96285 15.3412H16.9628C17.785 15.343 18.4826 14.738 18.599 13.924L19.4689 7.9125C19.5661 7.24059 19.0995 6.61725 18.4285 6.52009C18.3699 6.51184 4.73627 6.50725 4.73627 6.50725" stroke="white" stroke-width="1.5" stroke-linecap="round" stroke-linejoin="round"/>
<path d="M12.9531 9.89502H15.495" stroke="white" stroke-width="1.5" stroke-linecap="round" stroke-linejoin="round"/>
<path fill-rule="evenodd" clip-rule="evenodd" d="M6.56117 18.5188C6.83708 18.5188 7.05983 18.7425 7.05983 19.0175C7.05983 19.2934 6.83708 19.517 6.56117 19.517C6.28525 19.517 6.0625 19.2934 6.0625 19.0175C6.0625 18.7425 6.28525 18.5188 6.56117 18.5188Z" fill="white" stroke="white" stroke-width="1.5" stroke-linecap="round" stroke-linejoin="round"/>
<path fill-rule="evenodd" clip-rule="evenodd" d="M16.901 18.5188C17.1769 18.5188 17.4006 18.7425 17.4006 19.0175C17.4006 19.2934 17.1769 19.517 16.901 19.517C16.6251 19.517 16.4023 19.2934 16.4023 19.0175C16.4023 18.7425 16.6251 18.5188 16.901 18.5188Z" fill="white" stroke="white" stroke-width="1.5" stroke-linecap="round" stroke-linejoin="round"/>
</svg>
