<svg width="890" height="131" viewBox="0 0 890 131" fill="none" xmlns="http://www.w3.org/2000/svg">
<g clip-path="url(#clip0_9_110)">
<path d="M153.42 65.56C153.34 61.03 153.65 54.49 155.58 47C156.78 42.33 161.28 28.97 172.28 17.14C184.6 3.88 206.13 -2.83 225.28 2.11C248.22 8.03 261.8 22.38 268.52 42.43C277.18 68.25 273.72 92.51 253.5 113.17C228.64 138.58 185.9 135.56 165.71 106.22C157.26 93.94 154.47 78.77 154.47 78.77C153.52 73.4 153.37 68.81 153.42 65.56ZM172.85 43.54C169.14 58.15 168.99 73.63 172.44 88.32C174.12 95.49 176.64 102.46 180.76 109.07C187.73 120.26 197.23 128.38 211.82 128.3C228.91 128.2 239.76 118.8 247.58 102.86C255.8 86.11 259.17 68.65 254.76 50.2C251.21 35.33 245.55 21.66 233.68 10.6C220.78 -1.42 199.9 0.539999 189.05 12.41C180.4 21.87 175.67 32.43 172.85 43.53V43.54Z" fill="#CEAC73"/>
<path d="M347.45 130.09C358.78 129.99 370.12 129.89 381.45 129.79C378.97 129.03 374.47 127.24 370.6 123.03C368.97 121.26 367.85 119.48 367.06 117.97C366.54 116.79 365.64 114.74 364.52 112.19C361.9 106.2 356.57 95.16 350.42 82.47C348.99 79.51 347.44 76.41 344.06 73.77C340.31 70.85 336.17 69.97 333.5 69.67C336.1 69.87 340.02 69.88 344.55 68.71C352.32 66.7 357.2 62.03 359.48 60.38C373.65 50.09 373.63 21.12 357.54 11.36C347.39 5.2 336.58 1.45 324.62 0.919996C309.4 0.249996 294.2 0.579996 277.4 0.659996C284.1 5.8 284.29 11.8 284.26 18.08C284.14 49.19 284.16 80.3 284.25 111.41C284.27 118.28 284.7 125.14 277.25 129.96H306.58C305.16 129.07 302.76 127.29 300.8 124.23C300.77 124.18 300.75 124.15 300.74 124.14C298.44 120.48 298.87 116.21 298.94 115.34C299.23 111.38 299.09 80.05 298.94 36.48C298.94 26.76 299 17.04 298.9 7.32C298.87 4.44 299.46 2.64 302.86 2.74C312.69 3.04 322.44 2.15 332.22 5.23C346.99 9.87 358.74 29.85 353.76 43.7C351.97 48.69 347.06 53.88 341.51 56.65C337.6 58.6 332.46 59.75 330.34 60.23C325.78 61.25 325.19 60.87 321.88 61.86C318.91 62.75 314.63 64.03 311.03 67.5C306.61 71.77 305.45 77.23 305.09 79.91C305.8 78.7 307.17 76.74 309.51 75.1C310.7 74.27 314.14 71.85 318.84 72.39C324.04 72.98 327.01 76.74 327.58 77.49C330.17 81.6 332.18 84.99 333.49 87.25C342.49 102.8 345.35 111.01 349.4 117.84C349.41 117.86 349.41 117.87 349.42 117.88C349.99 118.94 352.11 122.92 350.71 126.46C350.44 127.13 349.66 128.77 347.44 130.11L347.45 130.09Z" fill="#CEAC73"/>
<path d="M677.3 129.61C688.63 129.51 699.97 129.41 711.3 129.31C708.38 128.32 704.12 126.42 700.45 122.55C697.45 119.38 696.33 116.46 694.37 111.7C692.73 107.71 688.58 99.13 680.27 81.98C678.9 79.16 677.7 77.08 676.04 75.27C675.54 74.73 674.89 74.04 673.9 73.28C671.08 71.12 668.18 70.49 666.22 70.08C663.28 69.47 661.23 69.56 661.23 69.43C661.23 69.21 667.18 69.79 674.4 68.21C679.68 67.06 682.48 65.44 683.26 64.98C686.12 63.27 687.89 61.41 689.33 59.88C690.63 58.5 694.26 54.57 696.6 48.93C700.37 39.85 700.12 28.01 694.32 18.66C693.67 17.61 691.55 14.34 687.39 10.86C678.32 3.27999 667.68 0.999996 654.47 0.419996C639.25 -0.250004 624.05 0.0799957 607.25 0.159996C613.95 5.3 614.14 11.3 614.11 17.58C613.99 48.69 614.01 79.8 614.1 110.91C614.12 117.78 614.55 124.64 607.1 129.46H636.43C635.01 128.57 632.61 126.79 630.65 123.73C630.63 123.7 630.61 123.67 630.59 123.64C628.74 120.71 627.91 117.24 628 113.77L628.41 99.33V35.97C628.79 20.89 628.98 10.26 628.75 6.81C628.71 6.15 628.55 4.2 629.74 3.06C630.34 2.49 631.27 2.19 632.7 2.24C651.11 2.8 653.46 1.33 662.06 4.73C668.7 7.35 674.89 9.8 679.66 16.38C680.23 17.17 688.83 29.48 683.61 43.2C682.87 45.13 679.58 53.09 671.85 56.95C668.07 58.84 660.84 59.94 659.37 60.2C657.77 60.49 656.53 60.67 654.16 61.18C649.7 62.14 647.47 62.62 645.26 63.68C641.55 65.46 639.18 68.07 638.1 69.43C634.52 73.92 633.79 78.72 633.6 80.89C634.3 79.55 635.68 77.36 638.21 75.72C643.53 72.28 649.56 74.1 651.34 74.64C657.26 76.42 660.49 80.71 661.54 82.23C662.43 83.63 663.1 84.73 663.45 85.3C672.06 99.59 674.8 109.65 679.24 117.34C679.93 118.54 681.79 121.64 677.28 129.61H677.3Z" fill="#CEAC73"/>
<path d="M460.66 0.129998C459.92 0.159998 458.98 0.229998 457.89 0.409998C457.22 0.519998 455.81 0.799998 454.31 1.35C451.34 2.44 449.34 4.13 448.08 5.2C447.12 6.02 445.42 7.57 444.01 9.65C440.14 15.38 439.43 21.76 439.93 27.2C440.29 31.15 439.89 34.38 441.19 40.9C441.67 44.74 442.52 49.39 439.78 52.4C438.18 54.16 436.02 54.64 435.33 54.79C430.7 55.76 427.11 52.7 426.65 52.29C427.38 53.39 429.03 55.56 431.97 56.95C433.25 57.56 435.48 58.62 438.18 58.09C442.4 57.26 444.39 53.19 444.66 52.61C445.1 51.66 445.74 50.08 446.07 48.05C446.63 44.63 446.02 41.93 445.85 41.11C444.63 35.07 445.85 24.15 450.3 15.94L450.34 15.87C453.41 10.23 459.31 6.72 465.73 6.72H475.04C463.44 36.8 451.83 66.87 440.23 96.95C439.95 97.68 438.93 97.7 438.6 96.99C419.71 55.83 406.17 25.88 404.94 22.74C404.9 22.63 404.65 22.01 404.25 20.96C402.13 15.49 401.86 15.07 401.66 14.16C400.95 10.89 402.34 7.95 402.72 7.15C405.45 1.39 412.13 0.129998 412.92 -0.0100021L366.42 0.119998C370.61 1.94 373.54 4.18 375.37 5.82C379.56 9.56 381.81 13.53 383.4 16.4C384.76 18.85 385.68 21.01 386.29 22.59L392.62 36.35C408.09 67.11 423.56 97.86 439.03 128.62C439.21 128.97 439.72 128.95 439.86 128.58C448.02 107.75 456.18 86.92 464.34 66.1C471.71 45.54 479.4 24.91 487.42 4.24C487.93 2.94 488.43 1.64 488.94 0.329998C479.52 0.269998 470.09 0.199998 460.67 0.139998L460.66 0.129998Z" fill="#CEAC73"/>
<path d="M522.55 27.6C521.04 24.83 519.53 22.06 518.02 19.28C500.88 70.82 487.83 108.19 485.9 113.3C485.9 113.3 483.2 120.46 478.41 124.6C478.38 124.62 478.36 124.65 478.33 124.67C475.66 126.96 473.08 128.5 471.04 129.51H502.56C501.9 129.37 493.42 127.43 492.33 122.01C492.22 121.45 492.17 120.81 492.26 120.07C502.35 89.24 512.45 58.41 522.54 27.58L522.55 27.6Z" fill="#CEAC73"/>
<path d="M563.65 129.32H599.89C593.98 127.26 589.32 124.23 587.02 119.55C577.2 99.52 567.54 79.44 557.87 59.36C554.63 52.63 551.42 45.89 548.21 39.15C543.53 29.31 541.48 24.85 538 17.79C534.61 10.91 531.75 5.35 529.88 1.78C529.47 1.35 528.7 0.66 527.53 0.28C527.14 0.15 526.47 -0.06 525.79 0.03C523.76 0.32 522.86 3.19 522.82 3.31C521.16 8.63 519.49 13.95 517.83 19.27C520.36 23.8 522.89 28.5 525.4 33.36C527.17 36.79 528.87 40.18 530.5 43.52C549.82 82.75 563.78 111.31 566.78 117.09C566.83 117.18 566.97 117.48 567.14 117.89C567.97 119.87 569.18 122.75 568.38 125.18C567.49 127.88 564.43 129.04 563.65 129.32Z" fill="#CEAC73"/>
<path d="M500.91 88.73C504.82 79.66 515.01 75.16 524.13 79.6C530.88 82.47 534.83 88.72 537.88 94.92C540.85 100.72 543.21 106.72 546.52 112.29C548.6 115.95 550.48 119.41 553.76 122.04C560.32 127.4 569.32 128.44 577.3 125.44C569.81 130.71 559.01 130.56 551.4 125.24C547.46 122.76 544.79 118.56 542.39 114.79C538.76 109.26 536.27 103.07 533.39 97.19C527.38 81.95 512.83 74.17 500.9 88.71L500.91 88.73Z" fill="#CEAC73"/>
<path d="M752.89 125.44C750.92 123 750.1 120.47 749.87 118.31C749.59 115.7 749.44 113.08 749.44 110.46C749.44 79.7 749.51 48.94 749.5 18.18C749.5 11.65 749.41 5.16 756.44 0.479996H725.61C732.99 4.99 733.24 11.15 733.25 17.32C733.31 49.39 733.29 81.47 733.33 113.54C733.33 119.58 732.72 125.37 726.93 129.42C727.59 129.78 727.89 130.09 728.2 130.09C738.94 130.09 749.68 130.14 760.42 130.16C758.72 129.72 755.39 128.55 752.88 125.45L752.89 125.44Z" fill="#CEAC73"/>
<path d="M884.33 41.45C876.25 19.62 852.52 2.99 827.67 1.61C814.12 0.859995 800.5 1.24 786.91 1.18C785.54 1.18 783.82 0.289995 782.67 2.04C783.83 2.81 785.19 3.94 786.39 5.55C790.26 10.73 789.46 16.87 789.2 18.49C789.25 49.15 789.3 79.82 789.34 110.48C789.3 113.26 788.83 118.68 785.42 124.13C783.9 126.57 782.19 128.38 780.73 129.68C788.52 129.68 796.3 129.68 804.09 129.67C804.37 92.16 804.65 54.65 804.92 17.15C805.11 15.33 805.89 10.42 809.84 6.9C811.19 5.69 813.93 3.75 820.2 3.23C835.43 1.97 847.85 11.11 849.49 12.29C855.57 16.7 860.53 22.69 864.3 30.25C876.29 54.26 875.98 78.71 863.49 102.32C859.76 109.37 854.85 115.06 848.85 119.23C839.41 125.8 829.19 126.73 821.22 127.55C814.75 128.21 809.32 128 805.57 127.69C804.47 127.69 803.37 127.69 802.26 127.69C802.39 127.97 802.45 128.23 802.48 128.4C802.51 128.59 802.52 128.79 802.51 128.99C802.5 129.23 802.43 129.45 802.35 129.67C808.7 129.66 815.06 129.63 821.41 129.57C842.92 129.36 861.26 121.68 874.55 105.7C890.66 86.32 892.76 64.32 884.3 41.45H884.33Z" fill="#CEAC73"/>
<path d="M35.89 114.87C35.59 114.4 32.05 108.66 34.6 102.79C34.94 102.01 36.27 99.07 39.49 97.39C43.23 95.44 47 96.47 48.17 96.79C49.94 97.28 51.39 98.1 53 99.01C55.49 100.43 55.39 100.81 56.89 101.54C57.82 101.99 61.56 103.77 65.22 102.2C67.26 101.33 68.92 99.71 70.13 97.86C72.48 94.26 73.23 89.68 72.26 85.49C70.73 78.93 64.81 75.41 65.04 75.18C65.22 74.99 68.89 77.33 71.93 81.51C73.41 83.54 76.35 88.21 76.91 94.61C77.03 96.05 77.92 108.81 67.78 116.85C67.41 117.14 58.8 123.74 47.78 121.6C44.76 121.02 39.11 119.92 35.9 114.87H35.89Z" fill="#CEAC73"/>
<path d="M1.27 0.959999L1.07 1.06C0.72 1.03 0.36 0.989999 0 0.959999H1.27Z" fill="#CEAC73"/>
<path d="M1.27 0.959999L1.07 1.06C0.72 1.03 0.36 0.989999 0 0.959999H1.27Z" fill="#CEAC73"/>
<path d="M24.87 12.93V102.24C24.87 108.47 25.03 112.31 25.34 113.74C25.75 115.65 26.79 117.22 26.86 117.35C27.33 118.23 28.32 120.04 30.07 121.79C32.18 123.9 34.3 124.84 36.25 125.7C37.2 126.12 38.43 126.6 39.92 127.02C40.34 127.14 40.26 127.76 39.82 127.76H2.83001C2.51001 127.76 2.45001 127.3 2.77001 127.22C5.85001 126.45 8.12001 125.27 9.52001 124.41C11.24 123.36 13.17 122.15 14.84 119.82C16.97 116.85 17.45 113.79 17.58 112.23L17.77 102.69V22.47C17.77 17.09 17.53 13.4 17.05 11.42C16.94 10.94 16.8 10.61 16.74 10.46C16.74 10.46 15.74 7.79001 12.95 5.41001C10.8 3.56001 6.59001 1.71001 1.07001 1.06001L1.27001 0.960005H17.98C19.92 0.950005 21.92 0.960005 23.97 1.02001C24.19 1.02001 24.4 1.03001 24.62 1.04001C27.9 1.19001 30.28 1.01001 30.86 0.990005C34.13 0.910005 38.03 3.54001 40.16 6.16001C42.29 8.77001 42.69 11.4 43.32 15.82C44.07 21.15 43.48 23.9 43.18 32.67C42.99 38.1 42.9 40.82 43.05 42.88C43.44 48.05 45.54 55.47 53.66 64.37C47.59 60.52 40.96 54.82 36.95 46.33C31.41 34.62 34.99 26.4 28.99 16.09C28 14.38 26.74 12.61 25.12 10.85C24.95 11.65 24.89 12.35 24.86 12.93H24.87Z" fill="#CEAC73"/>
<path d="M148.12 127.99C148.14 128.59 147.86 128.69 147.36 128.68C145.81 128.66 144.27 128.68 142.72 128.68C132.46 128.68 122.19 128.68 111.92 128.68C111.69 128.68 111.45 128.68 111.22 128.68C110.72 128.71 110.45 128.56 110.45 127.98C110.45 127.39 110.77 127.3 111.25 127.27C115.43 126.95 118.37 124.69 120.17 121.04C120.92 119.52 121.14 117.75 121.14 115.99C121.13 84.9 121.14 53.81 121.14 22.72V12.3C120.82 12.05 120.56 11.99 120.37 11.98C119.51 11.93 118.55 12.85 118.04 14.35C118.01 14.45 117.98 14.56 117.94 14.66L111.92 33.95L98.38 77.32C97.61 80.1 96.85 82.88 96.08 85.66C95.56 87.33 94.81 89.7 93.86 92.54C93.31 94.17 92.47 96.79 91.75 98.59C90.52 101.68 88.55 106.52 84.68 111.98C81.75 116.12 79.95 118.66 76.82 120.9C68.95 126.53 58.28 126.22 55.33 126.11C55.4 126.11 55.44 126.11 55.44 126.11C57.64 126.09 63.56 125.72 69.58 122.06C79.96 115.73 82.46 104.33 82.65 103.38C82.65 103.38 84.52 94.27 80.58 85.44C78.54 80.87 74.08 74.77 73.85 74.47C73.51 74.01 73.18 73.58 72.73 73.03C68.18 67.4 64.79 66.29 59.31 61.35C57.58 59.79 55.45 57.85 53.2 54.85C50.49 51.23 48.89 47.79 47.95 45.37C52.36 52.49 57.09 55.69 60.72 57.28C64.29 58.85 71.65 60.99 73.78 61.61C74.93 61.95 78.07 62.98 82 64.93C82.46 65.16 82.93 65.42 83.5 65.77C84.9 66.63 88.79 68.94 91.74 73.17C91.94 73.46 92.13 73.75 92.32 74.04V74L93.25 71L94.05 68.36L97.85 55.83L106.87 26.15C109.46 17.75 112.05 9.36 114.64 0.960002C125.39 0.960002 136.15 0.960002 146.9 0.960002C147.36 0.960002 148 0.730002 148.09 1.55C148.2 2.51 147.44 2.48 146.89 2.53C143.67 2.81 141.12 4.3 139.32 6.95C138.23 8.56 137.4 10.26 137.4 12.36C137.44 47.36 137.43 82.36 137.43 117.36C137.43 120.46 138.89 122.83 141.19 124.75C142.97 126.25 144.96 127.27 147.34 127.28C147.86 127.28 148.1 127.46 148.12 128.01V127.99Z" fill="#CEAC73"/>
<path d="M55.31 126.09C55.08 126.11 54.54 126.14 54.53 126.09C54.53 126.07 54.8 126.09 55.31 126.09Z" fill="#CEAC73"/>
<path d="M36.35 114.17C36.05 113.7 32.56 108.04 35.08 102.25C35.41 101.48 36.72 98.58 39.91 96.92C43.6 94.99 47.33 96.02 48.48 96.33C50.23 96.81 51.66 97.62 53.25 98.53C55.71 99.93 55.61 100.31 57.09 101.02C58 101.46 61.7 103.22 65.32 101.67C67.33 100.81 68.97 99.22 70.17 97.38C72.49 93.83 73.23 89.31 72.27 85.17C70.76 78.69 64.92 75.22 65.14 74.99C65.32 74.81 68.94 77.11 71.94 81.24C73.4 83.25 76.3 87.85 76.85 94.18C76.97 95.6 77.85 108.2 67.83 116.13C67.47 116.42 58.97 122.93 48.09 120.82C45.11 120.24 39.53 119.16 36.36 114.17H36.35Z" fill="#CEAC73"/>
</g>
<defs>
<clipPath id="clip0_9_110">
<rect width="889.21" height="130.4" fill="white"/>
</clipPath>
</defs>
</svg>
