<svg width="22" height="26" viewBox="0 0 22 26" fill="none" xmlns="http://www.w3.org/2000/svg">
<path d="M18.3629 13.7396C18.3513 11.6093 19.3148 10.0014 21.2652 8.81723C20.1739 7.25578 18.5254 6.3967 16.3487 6.22836C14.288 6.06584 12.0358 7.42992 11.2116 7.42992C10.3409 7.42992 8.34408 6.28641 6.77683 6.28641C3.53785 6.33865 0.0957031 8.86947 0.0957031 14.0182C0.0957031 15.539 0.374325 17.1101 0.931569 18.7315C1.67456 20.8618 4.3563 26.086 7.15413 25.9989C8.6169 25.9641 9.65012 24.9599 11.554 24.9599C13.3999 24.9599 14.3577 25.9989 15.9888 25.9989C18.8098 25.9583 21.2362 21.2101 21.9443 19.074C18.1597 17.292 18.3629 13.8498 18.3629 13.7396ZM15.0774 4.20835C16.6621 2.32766 16.517 0.61529 16.4706 0C15.0716 0.0812648 13.4522 0.951959 12.5292 2.02582C11.5134 3.17513 10.9155 4.59726 11.0432 6.19934C12.5582 6.31543 13.9397 5.53761 15.0774 4.20835Z" fill="#B1B1B1"/>
</svg>
