<svg width="15" height="24" viewBox="0 0 15 24" fill="none" xmlns="http://www.w3.org/2000/svg">
<path d="M14.8908 0.822502C14.8908 0.648122 14.8215 0.480884 14.6982 0.357579C14.5749 0.234274 14.4077 0.165002 14.2333 0.165002H10.9458C9.29036 0.0825394 7.66959 0.658642 6.4376 1.76743C5.2056 2.87623 4.46255 4.42757 4.37078 6.0825V9.633H1.08328C0.908901 9.633 0.741664 9.70227 0.618359 9.82558C0.495054 9.94888 0.425781 10.1161 0.425781 10.2905V13.7095C0.425781 13.8839 0.495054 14.0511 0.618359 14.1744C0.741664 14.2977 0.908901 14.367 1.08328 14.367H4.37078V23.1775C4.37078 23.3519 4.44005 23.5191 4.56336 23.6424C4.68666 23.7657 4.8539 23.835 5.02828 23.835H8.97328C9.14766 23.835 9.3149 23.7657 9.4382 23.6424C9.56151 23.5191 9.63078 23.3519 9.63078 23.1775V14.367H13.0761C13.2223 14.3691 13.365 14.3224 13.4817 14.2343C13.5984 14.1462 13.6824 14.0217 13.7204 13.8805L14.6672 10.4615C14.6934 10.3643 14.6969 10.2624 14.6775 10.1637C14.6581 10.065 14.6163 9.97205 14.5553 9.89202C14.4944 9.81199 14.4158 9.74702 14.3258 9.70212C14.2358 9.65721 14.1366 9.63356 14.036 9.633H9.63078V6.0825C9.66349 5.75701 9.81635 5.45539 10.0595 5.23655C10.3027 5.01771 10.6187 4.89736 10.9458 4.899H14.2333C14.4077 4.899 14.5749 4.82973 14.6982 4.70642C14.8215 4.58312 14.8908 4.41588 14.8908 4.2415V0.822502Z" fill="#B1B1B1"/>
</svg>
