<svg width="30" height="30" viewBox="0 0 30 30" fill="none" xmlns="http://www.w3.org/2000/svg">
<path d="M12.9126 20.7412H5.03674" stroke="white" stroke-width="2" stroke-linecap="round" stroke-linejoin="round"/>
<path d="M16.4257 8.62549H24.3016" stroke="white" stroke-width="2" stroke-linecap="round" stroke-linejoin="round"/>
<path fill-rule="evenodd" clip-rule="evenodd" d="M10.9079 8.55782C10.9079 6.93825 9.58516 5.625 7.95393 5.625C6.3227 5.625 5 6.93825 5 8.55782C5 10.1774 6.3227 11.4906 7.95393 11.4906C9.58516 11.4906 10.9079 10.1774 10.9079 8.55782Z" stroke="white" stroke-width="2" stroke-linecap="round" stroke-linejoin="round"/>
<path fill-rule="evenodd" clip-rule="evenodd" d="M25 20.6921C25 19.0725 23.6783 17.7593 22.0471 17.7593C20.4149 17.7593 19.0922 19.0725 19.0922 20.6921C19.0922 22.3117 20.4149 23.6249 22.0471 23.6249C23.6783 23.6249 25 22.3117 25 20.6921Z" stroke="white" stroke-width="2" stroke-linecap="round" stroke-linejoin="round"/>
</svg>
