<svg width="25" height="24" viewBox="0 0 25 24" fill="none" xmlns="http://www.w3.org/2000/svg">
<path d="M12.9434 10.285V14.4H19.7494C19.4744 16.165 17.6934 19.574 12.9434 19.574C8.84836 19.574 5.50436 16.185 5.50436 12C5.50436 7.815 8.84936 4.426 12.9434 4.426C15.2734 4.426 16.8344 5.415 17.7284 6.275L20.9824 3.137C18.8924 1.186 16.1824 0 12.9434 0C6.30836 0 0.943359 5.365 0.943359 12C0.943359 18.635 6.30836 24 12.9434 24C19.8694 24 24.4634 19.131 24.4634 12.274C24.4634 11.486 24.3784 10.884 24.2744 10.285H12.9434Z" fill="#B1B1B1"/>
</svg>
